<svg width="217" height="64" viewBox="0 0 217 64" fill="none" xmlns="http://www.w3.org/2000/svg">
<g clip-path="url(#clip0_12_3368)">
<path d="M209.28 64H7.60143C3.41092 64 0 60.5952 0 56.4272V7.5616C0 3.392 3.41092 0 7.60143 0H209.28C213.469 0 217 3.392 217 7.5616V56.4272C217 60.5952 213.469 64 209.28 64Z" fill="black"/>
<path d="M215.444 56.4286C215.444 59.8142 212.689 62.5566 209.281 62.5566H7.6015C4.19541 62.5566 1.43066 59.8142 1.43066 56.4286V7.55983C1.43066 4.17583 4.19541 1.42383 7.6015 1.42383H209.28C212.689 1.42383 215.442 4.17583 215.442 7.55983L215.444 56.4286Z" fill="black"/>
<path d="M48.4279 31.6544C48.3813 26.4976 52.6699 23.9888 52.866 23.872C50.4372 20.3472 46.6726 19.8656 45.3498 19.8272C42.188 19.496 39.121 21.7104 37.5104 21.7104C35.8677 21.7104 33.3874 19.8592 30.7143 19.9136C27.2745 19.9664 24.0564 21.9488 22.2915 25.0272C18.6491 31.304 21.3656 40.528 24.8553 45.6016C26.601 48.0864 28.6408 50.8608 31.3107 50.7632C33.9227 50.656 34.8984 49.1056 38.0505 49.1056C41.1737 49.1056 42.0899 50.7632 44.8129 50.7008C47.6162 50.656 49.3811 48.2048 51.0657 45.6976C53.083 42.8496 53.8931 40.0448 53.9253 39.9008C53.8594 39.8784 48.481 37.8352 48.4279 31.6544Z" fill="white"/>
<path d="M43.2842 16.4897C44.6891 14.7409 45.6503 12.3617 45.3835 9.94727C43.3501 10.0369 40.8072 11.3473 39.3429 13.0577C38.0473 14.5649 36.8899 17.0353 37.1889 19.3585C39.4731 19.5281 41.8183 18.2113 43.2842 16.4897Z" fill="white"/>
<path d="M86.2294 50.4066H82.579L80.5794 44.1522H73.6289L71.7241 50.4066H68.1702L75.0563 29.1138H79.3095L86.2294 50.4066ZM79.9766 41.5282L78.1682 35.9682C77.977 35.4002 77.6185 34.0626 77.0897 31.957H77.0254C76.8148 32.8626 76.4756 34.2002 76.0095 35.9682L74.2333 41.5282H79.9766Z" fill="white"/>
<path d="M103.938 42.5407C103.938 45.1519 103.229 47.216 101.812 48.7312C100.542 50.08 98.965 50.7536 97.0827 50.7536C95.0509 50.7536 93.5914 50.0271 92.7025 48.5743H92.6382V56.6624H89.2112V40.1071C89.2112 38.4655 89.1678 36.7807 89.0842 35.0527H92.0981L92.2894 37.4863H92.3537C93.4966 35.6527 95.231 34.7375 97.5585 34.7375C99.3781 34.7375 100.897 35.4527 102.112 36.8847C103.331 38.3183 103.938 40.2031 103.938 42.5407ZM100.447 42.6655C100.447 41.1711 100.109 39.9391 99.4311 38.9696C98.6901 37.9583 97.6951 37.4527 96.4478 37.4527C95.6023 37.4527 94.8339 37.7343 94.1476 38.2895C93.4596 38.8495 93.0095 39.5807 92.7989 40.4864C92.6929 40.9088 92.6398 41.2543 92.6398 41.5263V44.0864C92.6398 45.2032 92.9838 46.1455 93.6718 46.9151C94.3597 47.6848 95.2535 48.0687 96.3529 48.0687C97.6437 48.0687 98.6483 47.5727 99.3668 46.5839C100.087 45.5935 100.447 44.2879 100.447 42.6655Z" fill="white"/>
<path d="M121.679 42.5407C121.679 45.1519 120.97 47.216 119.551 48.7312C118.283 50.08 116.706 50.7536 114.823 50.7536C112.792 50.7536 111.332 50.0271 110.445 48.5743H110.381V56.6624H106.954V40.1071C106.954 38.4655 106.91 36.7807 106.827 35.0527H109.84L110.032 37.4863H110.096C111.237 35.6527 112.972 34.7375 115.301 34.7375C117.119 34.7375 118.638 35.4527 119.856 36.8847C121.07 38.3183 121.679 40.2031 121.679 42.5407ZM118.188 42.6655C118.188 41.1711 117.849 39.9391 117.17 38.9696C116.429 37.9583 115.437 37.4527 114.188 37.4527C113.341 37.4527 112.575 37.7343 111.887 38.2895C111.199 38.8495 110.75 39.5807 110.54 40.4864C110.435 40.9088 110.381 41.2543 110.381 41.5263V44.0864C110.381 45.2032 110.724 46.1455 111.409 46.9151C112.097 47.6832 112.991 48.0687 114.094 48.0687C115.384 48.0687 116.389 47.5727 117.108 46.5839C117.828 45.5935 118.188 44.2879 118.188 42.6655Z" fill="white"/>
<path d="M141.515 44.4351C141.515 46.2463 140.883 47.7199 139.615 48.8575C138.221 50.1007 136.281 50.7215 133.788 50.7215C131.486 50.7215 129.641 50.2799 128.244 49.3951L129.038 46.5519C130.542 47.4575 132.193 47.9119 133.992 47.9119C135.283 47.9119 136.287 47.6207 137.009 47.0415C137.727 46.4623 138.086 45.6847 138.086 44.7151C138.086 43.8511 137.79 43.1231 137.197 42.5327C136.607 41.9423 135.622 41.3935 134.246 40.8863C130.501 39.4959 128.63 37.4591 128.63 34.7807C128.63 33.0303 129.285 31.5951 130.599 30.4783C131.907 29.3599 133.653 28.8015 135.836 28.8015C137.782 28.8015 139.399 29.1391 140.69 29.8127L139.833 32.5935C138.628 31.9407 137.265 31.6143 135.739 31.6143C134.534 31.6143 133.592 31.9103 132.917 32.4991C132.346 33.0255 132.06 33.6671 132.06 34.4271C132.06 35.2687 132.386 35.9647 133.042 36.5119C133.613 37.0175 134.649 37.5647 136.154 38.1551C137.994 38.8927 139.346 39.7551 140.216 40.7439C141.082 41.7295 141.515 42.9631 141.515 44.4351Z" fill="white"/>
<path d="M152.845 37.6129H149.068V45.0673C149.068 46.9633 149.733 47.9105 151.067 47.9105C151.68 47.9105 152.188 47.8577 152.59 47.7521L152.684 50.3425C152.009 50.5937 151.12 50.7201 150.019 50.7201C148.666 50.7201 147.608 50.3089 146.845 49.4881C146.084 48.6657 145.702 47.2865 145.702 45.3489V37.6097H143.451V35.0497H145.702V32.2385L149.068 31.2273V35.0497H152.845V37.6129Z" fill="white"/>
<path d="M169.889 42.603C169.889 44.963 169.21 46.9006 167.857 48.4158C166.437 49.9758 164.554 50.7534 162.205 50.7534C159.942 50.7534 158.14 50.0062 156.796 48.5118C155.452 47.0174 154.781 45.131 154.781 42.8574C154.781 40.4782 155.472 38.5294 156.859 37.0142C158.243 35.4974 160.111 34.739 162.459 34.739C164.722 34.739 166.544 35.4862 167.918 36.9822C169.233 38.4334 169.889 40.307 169.889 42.603ZM166.333 42.7134C166.333 41.2974 166.029 40.083 165.414 39.0702C164.695 37.8446 163.668 37.2334 162.337 37.2334C160.959 37.2334 159.913 37.8462 159.194 39.0702C158.579 40.0846 158.275 41.3182 158.275 42.7774C158.275 44.1934 158.579 45.4078 159.194 46.419C159.935 47.6446 160.971 48.2558 162.306 48.2558C163.615 48.2558 164.642 47.6318 165.383 46.387C166.015 45.355 166.333 44.1278 166.333 42.7134Z" fill="white"/>
<path d="M181.028 38.0527C180.689 37.9903 180.327 37.9583 179.948 37.9583C178.742 37.9583 177.81 38.4111 177.154 39.3183C176.583 40.1183 176.297 41.1295 176.297 42.3503V50.4063H172.872L172.904 39.8879C172.904 38.1183 172.861 36.5071 172.775 35.0543H175.76L175.886 37.9919H175.981C176.342 36.9823 176.913 36.1695 177.694 35.5599C178.458 35.0111 179.282 34.7375 180.171 34.7375C180.488 34.7375 180.774 34.7599 181.028 34.7999V38.0527Z" fill="white"/>
<path d="M196.354 42.0029C196.354 42.6141 196.314 43.1293 196.229 43.5501H185.948C185.988 45.0669 186.485 46.2269 187.44 47.0269C188.306 47.7421 189.427 48.1005 190.802 48.1005C192.325 48.1005 193.713 47.8589 194.962 47.3741L195.499 49.7421C194.04 50.3757 192.317 50.6909 190.328 50.6909C187.936 50.6909 186.059 49.9901 184.693 48.5901C183.33 47.1901 182.646 45.3101 182.646 42.9517C182.646 40.6365 183.281 38.7085 184.553 37.1709C185.884 35.5293 187.682 34.7085 189.946 34.7085C192.169 34.7085 193.852 35.5293 194.995 37.1709C195.9 38.4749 196.354 40.0877 196.354 42.0029ZM193.087 41.1181C193.109 40.1069 192.886 39.2333 192.421 38.4957C191.828 37.5469 190.917 37.0733 189.69 37.0733C188.57 37.0733 187.658 37.5357 186.962 38.4637C186.392 39.2013 186.053 40.0861 185.948 41.1165L193.087 41.1181Z" fill="white"/>
<path d="M78.8433 16.0144C78.8433 17.8976 78.2759 19.3152 77.1427 20.2672C76.093 21.1456 74.6013 21.5856 72.6692 21.5856C71.7112 21.5856 70.8914 21.544 70.2051 21.4608V11.1712C71.1004 11.0272 72.0649 10.9536 73.1065 10.9536C74.9469 10.9536 76.3341 11.352 77.2696 12.1488C78.3177 13.0496 78.8433 14.3376 78.8433 16.0144ZM77.0671 16.0608C77.0671 14.84 76.7424 13.904 76.093 13.2512C75.4436 12.6 74.4953 12.2736 73.2463 12.2736C72.7159 12.2736 72.2642 12.3088 71.8896 12.3824V20.2048C72.097 20.2368 72.4763 20.2512 73.0277 20.2512C74.3168 20.2512 75.3118 19.8944 76.0126 19.1808C76.7135 18.4672 77.0671 17.4272 77.0671 16.0608Z" fill="white"/>
<path d="M88.261 17.6588C88.261 18.8188 87.9283 19.7692 87.2628 20.5148C86.5652 21.2812 85.6409 21.6636 84.4868 21.6636C83.3745 21.6636 82.4888 21.2972 81.8282 20.5612C81.1691 19.8268 80.8396 18.9004 80.8396 17.7836C80.8396 16.6156 81.1788 15.6572 81.8603 14.9132C82.5418 14.1692 83.4581 13.7964 84.6122 13.7964C85.7245 13.7964 86.6182 14.1628 87.2949 14.8972C87.9379 15.6108 88.261 16.5324 88.261 17.6588ZM86.5137 17.7132C86.5137 17.0172 86.3627 16.4204 86.0621 15.9228C85.7084 15.3212 85.2053 15.0204 84.5511 15.0204C83.8744 15.0204 83.36 15.3212 83.0064 15.9228C82.7042 16.4204 82.5547 17.0268 82.5547 17.7436C82.5547 18.4396 82.7058 19.0364 83.0064 19.534C83.3713 20.1356 83.8792 20.4364 84.535 20.4364C85.178 20.4364 85.6827 20.1308 86.046 19.518C86.3578 19.0108 86.5137 18.4092 86.5137 17.7132Z" fill="white"/>
<path d="M100.889 13.9504L98.5181 21.4928H96.975L95.9928 18.2176C95.7437 17.4 95.5411 16.5872 95.3836 15.7808H95.3531C95.2068 16.6096 95.0043 17.4208 94.7439 18.2176L93.7007 21.4928H92.1399L89.9104 13.9504H91.6416L92.4983 17.536C92.7057 18.384 92.8761 19.192 93.0127 19.9568H93.0432C93.1686 19.3264 93.376 18.5232 93.6685 17.552L94.7439 13.952H96.1166L97.1469 17.4752C97.3961 18.3344 97.5986 19.1616 97.7545 19.9584H97.8012C97.9153 19.1824 98.0873 18.3552 98.3155 17.4752L99.235 13.952H100.889V13.9504Z" fill="white"/>
<path d="M109.622 21.4925H107.937V17.1725C107.937 15.8413 107.429 15.1757 106.41 15.1757C105.91 15.1757 105.507 15.3581 105.194 15.7245C104.883 16.0909 104.726 16.5229 104.726 17.0173V21.4909H103.041V16.1053C103.041 15.4429 103.02 14.7245 102.98 13.9469H104.461L104.539 15.1261H104.586C104.782 14.7597 105.075 14.4573 105.459 14.2157C105.915 13.9341 106.426 13.7917 106.986 13.7917C107.693 13.7917 108.281 14.0189 108.749 14.4749C109.331 15.0333 109.622 15.8669 109.622 16.9741V21.4925Z" fill="white"/>
<path d="M114.267 21.4927H112.584V10.4895H114.267V21.4927Z" fill="white"/>
<path d="M124.185 17.6588C124.185 18.8188 123.852 19.7692 123.187 20.5148C122.489 21.2812 121.563 21.6636 120.411 21.6636C119.297 21.6636 118.411 21.2972 117.752 20.5612C117.093 19.8268 116.764 18.9004 116.764 17.7836C116.764 16.6156 117.103 15.6572 117.784 14.9132C118.466 14.1692 119.382 13.7964 120.535 13.7964C121.649 13.7964 122.541 14.1628 123.219 14.8972C123.862 15.6108 124.185 16.5324 124.185 17.6588ZM122.436 17.7132C122.436 17.0172 122.285 16.4204 121.985 15.9228C121.633 15.3212 121.128 15.0204 120.475 15.0204C119.797 15.0204 119.282 15.3212 118.93 15.9228C118.628 16.4204 118.479 17.0268 118.479 17.7436C118.479 18.4396 118.63 19.0364 118.93 19.534C119.295 20.1356 119.803 20.4364 120.459 20.4364C121.102 20.4364 121.605 20.1308 121.968 19.518C122.282 19.0108 122.436 18.4092 122.436 17.7132Z" fill="white"/>
<path d="M132.338 21.4924H130.825L130.7 20.6236H130.653C130.136 21.3164 129.398 21.6636 128.44 21.6636C127.725 21.6636 127.146 21.4348 126.71 20.9804C126.315 20.5676 126.117 20.054 126.117 19.4444C126.117 18.5228 126.503 17.8204 127.279 17.334C128.054 16.8476 129.144 16.6092 130.547 16.6204V16.4796C130.547 15.486 130.023 14.99 128.974 14.99C128.226 14.99 127.567 15.1772 126.998 15.5484L126.656 14.4476C127.36 14.014 128.229 13.7964 129.255 13.7964C131.235 13.7964 132.229 14.8364 132.229 16.9164V19.694C132.229 20.4476 132.266 21.0476 132.338 21.4924ZM130.589 18.9004V17.7372C128.731 17.7052 127.802 18.2124 127.802 19.2572C127.802 19.6508 127.908 19.9452 128.125 20.142C128.342 20.3388 128.618 20.4364 128.948 20.4364C129.318 20.4364 129.663 20.3196 129.978 20.0876C130.295 19.854 130.489 19.558 130.562 19.1948C130.579 19.1132 130.589 19.014 130.589 18.9004Z" fill="white"/>
<path d="M141.91 21.4927H140.415L140.336 20.2815H140.29C139.812 21.2031 138.999 21.6639 137.856 21.6639C136.943 21.6639 136.183 21.3071 135.58 20.5935C134.977 19.8799 134.677 18.9535 134.677 17.8159C134.677 16.5951 135.003 15.6063 135.659 14.8511C136.294 14.1471 137.072 13.7951 137.997 13.7951C139.015 13.7951 139.727 14.1359 140.132 14.8191H140.164V10.4895H141.85V19.4607C141.85 20.1951 141.87 20.8719 141.91 21.4927ZM140.164 18.3119V17.0543C140.164 16.8367 140.148 16.6607 140.118 16.5263C140.023 16.1231 139.819 15.7839 139.508 15.5103C139.195 15.2367 138.817 15.0991 138.382 15.0991C137.753 15.0991 137.261 15.3471 136.9 15.8447C136.541 16.3423 136.359 16.9775 136.359 17.7535C136.359 18.4991 136.531 19.1039 136.877 19.5695C137.242 20.0655 137.734 20.3135 138.349 20.3135C138.902 20.3135 139.344 20.1071 139.68 19.6927C140.005 19.3103 140.164 18.8495 140.164 18.3119Z" fill="white"/>
<path d="M156.317 17.6588C156.317 18.8188 155.984 19.7692 155.319 20.5148C154.621 21.2812 153.699 21.6636 152.543 21.6636C151.432 21.6636 150.547 21.2972 149.884 20.5612C149.225 19.8268 148.896 18.9004 148.896 17.7836C148.896 16.6156 149.235 15.6572 149.916 14.9132C150.598 14.1692 151.514 13.7964 152.67 13.7964C153.781 13.7964 154.676 14.1628 155.351 14.8972C155.994 15.6108 156.317 16.5324 156.317 17.6588ZM154.572 17.7132C154.572 17.0172 154.42 16.4204 154.12 15.9228C153.765 15.3212 153.263 15.0204 152.607 15.0204C151.932 15.0204 151.418 15.3212 151.063 15.9228C150.76 16.4204 150.611 17.0268 150.611 17.7436C150.611 18.4396 150.762 19.0364 151.063 19.534C151.427 20.1356 151.935 20.4364 152.591 20.4364C153.234 20.4364 153.74 20.1308 154.104 19.518C154.414 19.0108 154.572 18.4092 154.572 17.7132Z" fill="white"/>
<path d="M165.375 21.4925H163.692V17.1725C163.692 15.8413 163.184 15.1757 162.163 15.1757C161.663 15.1757 161.26 15.3581 160.948 15.7245C160.636 16.0909 160.48 16.5229 160.48 17.0173V21.4909H158.794V16.1053C158.794 15.4429 158.775 14.7245 158.735 13.9469H160.213L160.292 15.1261H160.339C160.537 14.7597 160.829 14.4573 161.212 14.2157C161.67 13.9341 162.179 13.7917 162.74 13.7917C163.446 13.7917 164.034 14.0189 164.502 14.4749C165.085 15.0333 165.375 15.8669 165.375 16.9741V21.4925Z" fill="white"/>
<path d="M176.712 15.2062H174.857V18.8702C174.857 19.8014 175.186 20.267 175.839 20.267C176.141 20.267 176.392 20.2414 176.59 20.1886L176.633 21.4606C176.3 21.5854 175.863 21.6478 175.325 21.6478C174.659 21.6478 174.142 21.4462 173.767 21.043C173.391 20.6398 173.205 19.9614 173.205 19.0094V15.2062H172.097V13.9502H173.205V12.5678L174.855 12.0718V13.9486H176.71L176.712 15.2062Z" fill="white"/>
<path d="M185.63 21.4927H183.944V17.2047C183.944 15.8527 183.436 15.1759 182.418 15.1759C181.637 15.1759 181.103 15.5679 180.811 16.3519C180.761 16.5167 180.732 16.7183 180.732 16.9551V21.4911H179.049V10.4895H180.732V15.0351H180.764C181.295 14.2079 182.055 13.7951 183.04 13.7951C183.738 13.7951 184.315 14.0223 184.773 14.4783C185.344 15.0463 185.63 15.8911 185.63 17.0079V21.4927Z" fill="white"/>
<path d="M194.829 17.3649C194.829 17.6657 194.807 17.9185 194.766 18.1249H189.714C189.737 18.8705 189.978 19.4385 190.446 19.8321C190.873 20.1841 191.425 20.3601 192.1 20.3601C192.847 20.3601 193.529 20.2417 194.143 20.0033L194.406 21.1681C193.688 21.4785 192.842 21.6337 191.863 21.6337C190.69 21.6337 189.766 21.2897 189.097 20.6017C188.425 19.9137 188.092 18.9905 188.092 17.8321C188.092 16.6945 188.403 15.7473 189.028 14.9921C189.681 14.1857 190.563 13.7825 191.677 13.7825C192.767 13.7825 193.595 14.1857 194.154 14.9921C194.606 15.6321 194.829 16.4241 194.829 17.3649ZM193.222 16.9313C193.235 16.4337 193.124 16.0049 192.895 15.6433C192.603 15.1777 192.158 14.9441 191.555 14.9441C191.005 14.9441 190.557 15.1713 190.214 15.6273C189.934 15.9905 189.769 16.4241 189.714 16.9313H193.222Z" fill="white"/>
</g>
<defs>
<clipPath id="clip0_12_3368">
<rect width="217" height="64" fill="white"/>
</clipPath>
</defs>
</svg>
