<svg width="312" height="15" viewBox="0 0 312 15" fill="none" xmlns="http://www.w3.org/2000/svg">
<ellipse cx="107.999" cy="7.48462" rx="5.99977" ry="6" fill="#CCCCCC" fill-opacity="0.6"/>
<ellipse cx="203.997" cy="7.48462" rx="5.99977" ry="6" fill="#CCCCCC" fill-opacity="0.6"/>
<ellipse cx="139.998" cy="7.48438" rx="5.99975" ry="5.99976" fill="#CCCCCC" fill-opacity="0.6"/>
<ellipse cx="235.997" cy="7.48438" rx="5.99975" ry="5.99976" fill="#CCCCCC" fill-opacity="0.6"/>
<ellipse cx="171.998" cy="7.48438" rx="5.99975" ry="5.99976" fill="#CCCCCC" fill-opacity="0.6"/>
<ellipse cx="267.996" cy="7.48438" rx="5.99975" ry="5.99976" fill="#CCCCCC" fill-opacity="0.6"/>
<ellipse cx="75.9993" cy="7.48438" rx="5.99975" ry="5.99976" fill="#D760C7"/>
<ellipse cx="43.9997" cy="7.48438" rx="5.99975" ry="5.99976" fill="#CCCCCC" fill-opacity="0.6"/>
<path d="M8.44047 2.80009L4.06547 7.17509C4.02479 7.21572 3.99252 7.26397 3.97051 7.31708C3.94849 7.3702 3.93716 7.42713 3.93716 7.48462C3.93716 7.54211 3.94849 7.59904 3.97051 7.65216C3.99252 7.70527 4.02479 7.75352 4.06547 7.79415L8.44047 12.1692C8.52256 12.2512 8.6339 12.2974 8.75 12.2974C8.8661 12.2974 8.97744 12.2512 9.05953 12.1692C9.14163 12.0871 9.18774 11.9757 9.18774 11.8596C9.18774 11.7435 9.14163 11.6322 9.05953 11.5501L4.99352 7.48462L9.05953 3.41915C9.10018 3.3785 9.13242 3.33025 9.15442 3.27714C9.17642 3.22403 9.18774 3.1671 9.18774 3.10962C9.18774 3.05213 9.17642 2.99521 9.15442 2.9421C9.13242 2.88899 9.10018 2.84074 9.05953 2.80009C9.01888 2.75944 8.97063 2.7272 8.91752 2.7052C8.86441 2.6832 8.80749 2.67188 8.75 2.67188C8.69252 2.67188 8.63559 2.6832 8.58248 2.7052C8.52937 2.7272 8.48112 2.75944 8.44047 2.80009Z" fill="#9C9C9C"/>
<path d="M303.556 2.80009L307.931 7.17509C307.971 7.21572 308.004 7.26397 308.026 7.31708C308.048 7.3702 308.059 7.42713 308.059 7.48462C308.059 7.54211 308.048 7.59904 308.026 7.65216C308.004 7.70527 307.971 7.75352 307.931 7.79415L303.556 12.1692C303.474 12.2512 303.362 12.2974 303.246 12.2974C303.13 12.2974 303.019 12.2512 302.937 12.1692C302.854 12.0871 302.808 11.9757 302.808 11.8596C302.808 11.7435 302.854 11.6322 302.937 11.5501L307.003 7.48462L302.937 3.41915C302.896 3.3785 302.864 3.33025 302.842 3.27714C302.82 3.22403 302.808 3.1671 302.808 3.10962C302.808 3.05213 302.82 2.99521 302.842 2.9421C302.864 2.88899 302.896 2.84074 302.937 2.80009C302.977 2.75944 303.025 2.7272 303.079 2.7052C303.132 2.6832 303.189 2.67188 303.246 2.67188C303.304 2.67188 303.361 2.6832 303.414 2.7052C303.467 2.7272 303.515 2.75944 303.556 2.80009Z" fill="#9C9C9C"/>
</svg>
