<svg width="216" height="64" viewBox="0 0 216 64" fill="none" xmlns="http://www.w3.org/2000/svg">
<path d="M207.997 64H8.00412C3.60417 64 0.00427246 60.4001 0.00427246 56.0002V8.00107C0.00427246 3.60112 3.60417 0.0012207 8.00412 0.0012207H207.997C212.397 0.0012207 215.997 3.60112 215.997 8.00107V56.0002C215.997 60.4001 212.397 64 207.997 64Z" fill="black"/>
<path d="M171.097 48.0004H174.083V27.9974H171.097V48.0004ZM197.988 35.2035L194.566 43.8752H194.463L190.912 35.2035H187.696L193.024 47.3236L189.985 54.0658H193.099L201.308 35.2041L197.988 35.2035ZM181.056 45.7283C180.08 45.7283 178.715 45.2388 178.715 44.0295C178.715 42.4857 180.414 41.8939 181.88 41.8939C183.192 41.8939 183.811 42.1764 184.608 42.5627C184.376 44.4157 182.781 45.7283 181.056 45.7283ZM181.418 34.766C179.256 34.766 177.018 35.7184 176.091 37.8285L178.741 38.9347C179.307 37.8285 180.362 37.4686 181.469 37.4686C183.013 37.4686 184.582 38.3941 184.608 40.0416V40.2472C184.067 39.9384 182.909 39.4754 181.494 39.4754C178.637 39.4754 175.73 41.0446 175.73 43.9783C175.73 46.6546 178.072 48.3788 180.696 48.3788C182.702 48.3788 183.811 47.4782 184.504 46.4227H184.608V47.9676H187.491V40.2984C187.491 36.7472 184.838 34.766 181.418 34.766ZM162.966 37.6384H158.72V30.7824H162.966C165.198 30.7824 166.465 32.63 166.465 34.2104C166.465 35.7604 165.198 37.6384 162.966 37.6384ZM162.889 27.9979H155.736V48.0009H158.72V40.4229H162.89C166.198 40.4229 169.451 38.0279 169.451 34.2111C169.451 30.3949 166.198 27.9979 162.889 27.9979ZM123.881 45.7316C121.818 45.7316 120.092 44.0041 120.092 41.6336C120.092 39.2355 121.818 37.4836 123.881 37.4836C125.917 37.4836 127.515 39.2356 127.515 41.6336C127.515 44.0041 125.917 45.7316 123.881 45.7316ZM127.309 36.3232H127.206C126.536 35.5243 125.246 34.8026 123.623 34.8026C120.22 34.8026 117.101 37.7931 117.101 41.6336C117.101 45.448 120.22 48.4122 123.623 48.4122C125.246 48.4122 126.536 47.6903 127.206 46.866H127.309V47.8447C127.309 50.4491 125.917 51.8403 123.675 51.8403C121.845 51.8403 120.711 50.5259 120.246 49.4177L117.644 50.5002C118.39 52.3038 120.375 54.5214 123.675 54.5214C127.181 54.5214 130.145 52.4588 130.145 47.4321V35.2148H127.309L127.309 36.3232ZM132.208 47.9998H135.196V27.9968H132.208V47.9998ZM139.604 41.4012C139.527 38.7718 141.642 37.4318 143.162 37.4318C144.348 37.4318 145.352 38.0249 145.689 38.8749L139.604 41.4012ZM148.884 39.1324C148.317 37.6125 146.59 34.8026 143.059 34.8026C139.552 34.8026 136.64 37.5605 136.64 41.6075C136.64 45.4224 139.527 48.4123 143.393 48.4123C146.512 48.4123 148.317 46.5055 149.065 45.3967L146.745 43.8499C145.971 44.9843 144.915 45.7318 143.393 45.7318C141.873 45.7318 140.79 45.0356 140.095 43.6694L149.193 39.9063L148.884 39.1324ZM76.3923 36.8906V39.7774H83.3002C83.0939 41.4013 82.5527 42.5868 81.7277 43.4118C80.7221 44.4167 79.1497 45.5255 76.3922 45.5255C72.139 45.5255 68.8142 42.0974 68.8142 37.8443C68.8142 33.5913 72.139 30.1627 76.3922 30.1627C78.6864 30.1627 80.3615 31.0651 81.5988 32.2251L83.6357 30.1883C81.9082 28.5389 79.6145 27.2759 76.3922 27.2759C70.5659 27.2759 65.6686 32.0188 65.6686 37.8443C65.6686 43.6693 70.5659 48.4123 76.3922 48.4123C79.5365 48.4123 81.9083 47.3811 83.7638 45.4481C85.6714 43.5405 86.2644 40.86 86.2644 38.6944C86.2644 38.025 86.2124 37.4063 86.1094 36.8906H76.3923ZM94.1188 45.7316C92.0563 45.7316 90.2776 44.0304 90.2776 41.6075C90.2776 39.1587 92.0563 37.4837 94.1188 37.4837C96.1806 37.4837 97.9592 39.1587 97.9592 41.6075C97.9592 44.0304 96.1806 45.7316 94.1188 45.7316ZM94.1188 34.8026C90.3544 34.8026 87.2875 37.6636 87.2875 41.6075C87.2875 45.5255 90.3544 48.4123 94.1188 48.4123C97.8818 48.4123 100.949 45.5255 100.949 41.6075C100.949 37.6636 97.8818 34.8026 94.1188 34.8026ZM109.019 45.7316C106.958 45.7316 105.179 44.0304 105.179 41.6075C105.179 39.1587 106.958 37.4837 109.019 37.4837C111.082 37.4837 112.86 39.1587 112.86 41.6075C112.86 44.0304 111.082 45.7316 109.019 45.7316ZM109.019 34.8026C105.256 34.8026 102.189 37.6636 102.189 41.6075C102.189 45.5255 105.256 48.4123 109.019 48.4123C112.784 48.4123 115.851 45.5255 115.851 41.6075C115.851 37.6636 112.784 34.8026 109.019 34.8026Z" fill="white"/>
<path d="M33.1466 31.0791L16.1136 49.1584C16.1143 49.1621 16.1156 49.1652 16.1162 49.1691C16.6386 51.1323 18.4317 52.5778 20.5598 52.5778C21.4105 52.5778 22.2092 52.3478 22.8942 51.9441L22.9486 51.9122L42.1223 40.8481L33.1466 31.0791Z" fill="#EB3131"/>
<path d="M50.3798 28.0009L50.3635 27.9897L42.0856 23.1909L32.7595 31.4897L42.118 40.847L50.3522 36.0959C51.7958 35.3166 52.7759 33.7947 52.7759 32.0397C52.7759 30.2972 51.8092 28.7828 50.3798 28.0009Z" fill="#F6B60B"/>
<path d="M16.1113 14.8442C16.0089 15.2218 15.9551 15.6173 15.9551 16.0281V47.9759C15.9551 48.3858 16.0083 48.7827 16.1119 49.1589L33.7329 31.5416L16.1113 14.8442Z" fill="#5778C5"/>
<path d="M33.2727 32.0017L42.0895 23.1875L22.9374 12.0834C22.2412 11.6664 21.4287 11.4258 20.5593 11.4258C18.4312 11.4258 16.6357 12.874 16.1132 14.8394C16.1125 14.8414 16.1125 14.8427 16.1125 14.8444L33.2727 32.0017Z" fill="#3BAD49"/>
<path d="M75.8324 15.6506H71.1649V16.8056H74.6625C74.5674 17.7481 74.1924 18.4881 73.5599 19.0256C72.9275 19.5632 72.1199 19.8331 71.165 19.8331C70.1175 19.8331 69.2299 19.4681 68.5026 18.7432C67.79 18.0032 67.4276 17.0882 67.4276 15.9857C67.4276 14.8833 67.79 13.9683 68.5026 13.2283C69.23 12.5034 70.1175 12.1408 71.165 12.1408C71.7025 12.1408 72.215 12.2333 72.6849 12.4359C73.155 12.6383 73.5324 12.9208 73.8274 13.2834L74.7149 12.3959C74.3124 11.9383 73.8025 11.5884 73.1698 11.3333C72.5373 11.0783 71.8774 10.9559 71.1648 10.9559C69.7674 10.9559 68.5825 11.4408 67.615 12.4084C66.6475 13.3783 66.1625 14.5733 66.1625 15.9857C66.1625 17.3981 66.6474 18.5957 67.615 19.5633C68.5825 20.5306 69.7674 21.0158 71.1648 21.0158C72.6323 21.0158 73.8023 20.5457 74.7023 19.5907C75.4948 18.7958 75.8997 17.7208 75.8997 16.3758C75.8997 16.1483 75.8724 15.9056 75.8324 15.6506ZM77.6405 11.1707V20.8006H83.2628V19.6181H78.878V16.5632H82.833V15.4082H78.878V12.3558H83.2628V11.1706L77.6405 11.1707ZM91.1466 12.3558V11.1707H84.5292V12.3558H87.2192V20.8006H88.4567V12.3558H91.1466ZM97.1377 11.1707H95.9002V20.8006H97.1377V11.1707ZM105.306 12.3558V11.1707H98.6883V12.3558H101.378V20.8006H102.616V12.3558H105.306ZM117.793 12.4233C116.838 11.4408 115.668 10.9558 114.27 10.9558C112.87 10.9558 111.701 11.4408 110.745 12.4083C109.79 13.3633 109.321 14.5608 109.321 15.9856C109.321 17.4105 109.791 18.6081 110.745 19.5632C111.701 20.5306 112.87 21.0157 114.27 21.0157C115.655 21.0157 116.838 20.5306 117.793 19.5632C118.748 18.6082 119.218 17.4107 119.218 15.9856C119.218 14.5732 118.748 13.3781 117.793 12.4233ZM111.633 13.2282C112.345 12.5033 113.221 12.1407 114.27 12.1407C115.318 12.1407 116.193 12.5033 116.893 13.2282C117.605 13.9407 117.955 14.8706 117.955 15.9856C117.955 17.1032 117.605 18.0306 116.893 18.7431C116.193 19.4681 115.318 19.833 114.27 19.833C113.221 19.833 112.345 19.4681 111.633 18.7431C110.935 18.0156 110.586 17.1032 110.586 15.9856C110.586 14.8706 110.935 13.9557 111.633 13.2282ZM122.158 14.8033L122.105 12.9456H122.158L127.053 20.8005H128.345V11.1706H127.108V16.8055L127.16 18.6631H127.108L122.428 11.1706H120.92V20.8005H122.158V14.8033Z" fill="white" stroke="white" stroke-width="0.319994" stroke-miterlimit="10"/>
</svg>
