<svg width="68" height="69" viewBox="0 0 68 69" fill="none" xmlns="http://www.w3.org/2000/svg">
<circle cx="34" cy="34.3071" r="34" fill="#CCCCCC"/>
<circle cx="34.0003" cy="34.3072" r="32.2105" fill="white"/>
<path d="M50.6667 28.8142V21.2475C50.6667 18.8975 49.6 17.9475 46.95 17.9475H40.2167C37.5667 17.9475 36.5 18.8975 36.5 21.2475V28.7975C36.5 31.1642 37.5667 32.0975 40.2167 32.0975H46.95C49.6 32.1142 50.6667 31.1642 50.6667 28.8142Z" stroke="#D760C7" stroke-width="2.5" stroke-linecap="round" stroke-linejoin="round"/>
<path d="M50.6667 47.5643V40.8309C50.6667 38.1809 49.6 37.1143 46.95 37.1143H40.2167C37.5667 37.1143 36.5 38.1809 36.5 40.8309V47.5643C36.5 50.2143 37.5667 51.2809 40.2167 51.2809H46.95C49.6 51.2809 50.6667 50.2143 50.6667 47.5643Z" stroke="#D760C7" stroke-width="2.5" stroke-linecap="round" stroke-linejoin="round"/>
<path d="M31.5 28.8142V21.2475C31.5 18.8975 30.4334 17.9475 27.7834 17.9475H21.05C18.4 17.9475 17.3334 18.8975 17.3334 21.2475V28.7975C17.3334 31.1642 18.4 32.0975 21.05 32.0975H27.7834C30.4334 32.1142 31.5 31.1642 31.5 28.8142Z" stroke="#D760C7" stroke-width="2.5" stroke-linecap="round" stroke-linejoin="round"/>
<path d="M31.5 47.5643V40.8309C31.5 38.1809 30.4334 37.1143 27.7834 37.1143H21.05C18.4 37.1143 17.3334 38.1809 17.3334 40.8309V47.5643C17.3334 50.2143 18.4 51.2809 21.05 51.2809H27.7834C30.4334 51.2809 31.5 50.2143 31.5 47.5643Z" stroke="#D760C7" stroke-width="2.5" stroke-linecap="round" stroke-linejoin="round"/>
</svg>
