<svg width="68" height="69" viewBox="0 0 68 69" fill="none" xmlns="http://www.w3.org/2000/svg">
<circle cx="34" cy="34.3071" r="34" fill="#CCCCCC"/>
<circle cx="34.0003" cy="34.3071" r="32.2105" fill="white"/>
<path d="M29.8334 37.531C29.8334 39.1476 31.0834 40.4476 32.6167 40.4476H35.75C37.0834 40.4476 38.1667 39.3143 38.1667 37.8976C38.1667 36.381 37.5001 35.831 36.5167 35.481L31.5 33.731C30.5167 33.381 29.8501 32.8476 29.8501 31.3143C29.8501 29.9143 30.9334 28.7643 32.2667 28.7643H35.4C36.9334 28.7643 38.1834 30.0643 38.1834 31.681" stroke="#D760C7" stroke-width="2.5" stroke-linecap="round" stroke-linejoin="round"/>
<path d="M34 27.1143V42.1143" stroke="#D760C7" stroke-width="2.5" stroke-linecap="round" stroke-linejoin="round"/>
<path d="M50.6668 34.6143C50.6668 43.8143 43.2001 51.281 34.0001 51.281C24.8001 51.281 17.3334 43.8143 17.3334 34.6143C17.3334 25.4143 24.8001 17.9476 34.0001 17.9476" stroke="#D760C7" stroke-width="2.5" stroke-linecap="round" stroke-linejoin="round"/>
<path d="M42.3334 19.6143V26.2809H49.0001" stroke="#D760C7" stroke-width="2.5" stroke-linecap="round" stroke-linejoin="round"/>
<path d="M50.6667 17.9476L42.3334 26.281" stroke="#D760C7" stroke-width="2.5" stroke-linecap="round" stroke-linejoin="round"/>
</svg>
