<svg width="68" height="69" viewBox="0 0 68 69" fill="none" xmlns="http://www.w3.org/2000/svg">
<circle cx="34" cy="34.3071" r="34" fill="#CCCCCC"/>
<circle cx="34.0003" cy="34.3071" r="32.2105" fill="white"/>
<path d="M50.6667 34.3071V42.6404C50.6667 47.6404 47.3334 50.9738 42.3334 50.9738H25.6667C20.6667 50.9738 17.3334 47.6404 17.3334 42.6404V34.3071C17.3334 29.7738 20.0667 26.6071 24.3167 26.0738C24.75 26.0071 25.2 25.9738 25.6667 25.9738H42.3334C42.7667 25.9738 43.1834 25.9904 43.5834 26.0571C47.8834 26.5571 50.6667 29.7404 50.6667 34.3071Z" stroke="#D760C7" stroke-width="2.5" stroke-linecap="round" stroke-linejoin="round"/>
<path d="M43.5856 26.0572C43.1856 25.9905 42.769 25.9739 42.3356 25.9739H25.669C25.2023 25.9739 24.7523 26.0072 24.319 26.0739C24.5523 25.6072 24.8856 25.1739 25.2856 24.7739L30.7023 19.3405C32.9856 17.0738 36.6856 17.0738 38.969 19.3405L41.8856 22.2905C42.9523 23.3405 43.519 24.6738 43.5856 26.0572Z" stroke="#D760C7" stroke-width="2.5" stroke-linecap="round" stroke-linejoin="round"/>
<path d="M50.6667 35.1405H45.6667C43.8334 35.1405 42.3334 36.6405 42.3334 38.4738C42.3334 40.3072 43.8334 41.8072 45.6667 41.8072H50.6667" stroke="#D760C7" stroke-width="2.5" stroke-linecap="round" stroke-linejoin="round"/>
</svg>
