<svg width="68" height="69" viewBox="0 0 68 69" fill="none" xmlns="http://www.w3.org/2000/svg">
<circle cx="34" cy="34.3071" r="34" fill="#CCCCCC"/>
<circle cx="34.0015" cy="34.3071" r="32.2105" fill="white"/>
<path d="M29.8333 37.5308C29.8333 39.1475 31.0833 40.4475 32.6166 40.4475H35.7499C37.0832 40.4475 38.1666 39.3141 38.1666 37.8975C38.1666 36.3808 37.4999 35.8308 36.5166 35.4808L31.4999 33.7308C30.5166 33.3808 29.8499 32.8475 29.8499 31.3142C29.8499 29.9142 30.9332 28.7642 32.2666 28.7642H35.3999C36.9332 28.7642 38.1833 30.0642 38.1833 31.6808" stroke="#D760C7" stroke-width="2.5" stroke-linecap="round" stroke-linejoin="round"/>
<path d="M34 27.1143V42.1142" stroke="#D760C7" stroke-width="2.49999" stroke-linecap="round" stroke-linejoin="round"/>
<path d="M50.6665 34.6143C50.6665 43.8142 43.1999 51.2809 33.9999 51.2809C24.7999 51.2809 17.3333 43.8142 17.3333 34.6143C17.3333 25.4143 24.7999 17.9476 33.9999 17.9476" stroke="#D760C7" stroke-width="2.49999" stroke-linecap="round" stroke-linejoin="round"/>
<path d="M50.6667 24.6143V17.9476H44" stroke="#D760C7" stroke-width="2.49999" stroke-linecap="round" stroke-linejoin="round"/>
<path d="M42.3333 26.2809L50.6666 17.9476" stroke="#D760C7" stroke-width="2.49999" stroke-linecap="round" stroke-linejoin="round"/>
</svg>
